<svg width="24" height="24" viewBox="0 0 24 24" fill="none" xmlns="http://www.w3.org/2000/svg">
<path d="M18.8553 12.6827C18.8446 10.7162 19.7337 9.23204 21.5333 8.13898C20.5264 6.69765 19.0053 5.90465 16.9968 5.74926C15.0954 5.59923 13.0173 6.85839 12.2567 6.85839C11.4533 6.85839 9.61088 5.80284 8.16476 5.80284C5.17611 5.85106 2 8.1872 2 12.9399C2 14.3437 2.25709 15.7939 2.77126 17.2906C3.45683 19.2571 5.93131 24.0794 8.5129 23.999C9.86261 23.9669 10.816 23.0399 12.5728 23.0399C14.276 23.0399 15.1597 23.999 16.6647 23.999C19.2678 23.9615 21.5066 19.5786 22.16 17.6068C18.6679 15.9618 18.8553 12.7845 18.8553 12.6827V12.6827ZM15.8238 3.88464C17.286 2.14861 17.1521 0.56796 17.1093 0C15.8185 0.0750136 14.3242 0.878731 13.4726 1.86998C12.5353 2.93089 11.9836 4.24363 12.1014 5.72247C13.4993 5.82963 14.7741 5.11164 15.8238 3.88464V3.88464Z" fill="black"/>
</svg>
