<svg width="24" height="24" viewBox="0 0 24 24" fill="none" xmlns="http://www.w3.org/2000/svg">
<path fill-rule="evenodd" clip-rule="evenodd" d="M21.1261 18.9341L21.1267 18.935C21.6393 19.5068 21.8623 19.9343 21.8407 20.3158C21.8187 20.6976 21.538 20.9604 21.1918 21.1703C20.9869 21.2944 20.7514 21.4096 20.505 21.5301C19.9178 21.8172 19.2686 22.1347 18.8254 22.6748L18.7035 22.5737L18.8245 22.6759C18.1642 23.4654 17.3476 23.9205 16.5795 23.9814C15.8123 24.0422 15.0926 23.6861 14.7052 22.9075L14.7035 22.9047C14.6519 22.8051 14.6141 22.7002 14.588 22.5913C14.0579 22.6209 13.5644 22.5491 13.1141 22.4835C12.7156 22.4254 12.3508 22.3723 12.0242 22.3988C11.4793 22.4289 11.0432 22.5132 10.6666 22.5859C10.3347 22.6501 10.0491 22.7053 9.77591 22.7066C9.55043 23.2045 9.11171 23.5282 8.5708 23.6521C7.82524 23.8232 6.89058 23.6512 5.9687 23.1668C5.37979 22.853 4.68173 22.7731 4.04167 22.7C3.74586 22.6663 3.46227 22.6339 3.20722 22.5804C2.80375 22.4956 2.44694 22.3457 2.27312 22.0058C2.09985 21.6665 2.1315 21.199 2.37752 20.5228C2.45194 20.2901 2.40003 19.95 2.34478 19.588L2.3392 19.5514C2.31171 19.3709 2.2845 19.1833 2.2845 18.9983C2.2845 18.7982 2.31616 18.6009 2.41362 18.4181L2.41454 18.4166C2.62168 18.017 2.96342 17.851 3.27441 17.7388C3.32023 17.7224 3.36544 17.7067 3.40985 17.6912C3.66688 17.602 3.89733 17.522 4.06662 17.352C4.16866 17.2436 4.2657 17.1098 4.36759 16.9694C4.47781 16.8175 4.59372 16.6577 4.72777 16.5137C4.76248 16.4769 4.79857 16.4409 4.83662 16.4066C4.71527 15.6006 4.84689 14.7492 5.12345 13.9139C5.70963 12.1438 6.9475 10.4434 7.82635 9.393C8.57468 8.32416 8.79516 7.4624 8.87207 6.369C8.88226 6.12533 8.86115 5.80275 8.83688 5.43198C8.71229 3.52803 8.50454 0.35346 12.0242 0.0687227C12.1906 0.0553273 12.3502 0.0489087 12.5032 0.0491878C16.1166 0.0542792 16.0652 3.72912 16.0346 5.92418C16.0333 6.01512 16.0321 6.10351 16.0311 6.189C16.0161 7.56974 16.7607 8.51316 17.5365 9.4962L17.5828 9.55486C18.2906 10.3954 19.2172 11.6241 19.7478 13.0346C20.1804 14.1835 20.3484 15.4552 19.92 16.7322C19.9841 16.7565 20.0483 16.7872 20.1115 16.8249C20.1746 16.8626 20.2373 16.9078 20.2984 16.9613L20.3004 16.963C20.6086 17.2268 20.7049 17.6337 20.791 18.011L20.7926 18.0178C20.8783 18.3928 20.9586 18.7441 21.1261 18.9341ZM19.5428 19.5142C19.8544 19.8797 19.6677 20.371 18.85 20.8136C18.5531 20.9743 18.2488 21.2712 17.9424 21.57C17.405 22.0943 16.8613 22.6247 16.3404 22.4367C15.5227 22.1416 15.659 21.4038 15.9997 20.8136C16.3404 20.2234 16.4443 18.9302 16.4443 18.4507C16.4443 17.9712 16.9878 18.0101 17.4989 18.0839C17.7166 18.1153 17.9137 18.0798 18.1024 18.0458C18.3566 18 18.5957 17.9569 18.85 18.0839C19.0873 18.2025 19.1518 18.467 19.2235 18.7607C19.2856 19.0152 19.353 19.2916 19.5428 19.5142ZM6.77897 18.4908C6.34604 17.6435 5.86555 17.8507 5.50812 18.1736C5.29042 18.3702 5.02006 18.4401 4.77118 18.5044C4.48388 18.5787 4.22521 18.6455 4.10922 18.8914C3.98497 19.1549 4.02713 19.4026 4.07196 19.6661C4.10523 19.8616 4.13997 20.0657 4.10923 20.2913C4.03707 20.8209 3.99896 21.3841 4.46797 21.3841C4.93698 21.3841 6.20173 21.4917 6.77897 21.8447C7.35621 22.1978 8.07782 22.339 8.36638 21.4917C8.59541 20.8192 7.9829 20.0684 7.42987 19.3906C7.1674 19.0688 6.91831 18.7635 6.77897 18.4908ZM10.3524 7.25409C10.244 6.50699 10.7114 6.16721 11.459 6.04918C11.5971 6.02737 11.7319 6.00396 11.8637 5.98107C12.6238 5.84912 13.282 5.73484 13.8688 6.04918C14.5573 6.41803 13.918 9.2471 12.5655 9.36885C12.0245 9.41755 10.5095 8.33606 10.3524 7.25409ZM9.86061 20.9754C10.1885 20.7459 11.4885 20.5672 12.3934 20.6066C12.687 20.6193 12.9507 20.6626 13.1947 20.7027C13.7026 20.7862 14.1255 20.8557 14.5573 20.6066C14.6089 20.4827 14.6692 20.361 14.7322 20.2338C14.9695 19.7547 15.2459 19.1967 15.2459 18.1475C15.2459 16.377 17.0163 16.377 17.0163 16.377C17.0163 16.377 14.9508 15.7377 15.7131 13.2295C16.689 10.0184 14.9508 8.85246 14.9508 8.85246C14.9508 8.85246 13.5491 10.7213 12.6147 10.7213C11.6803 10.7213 9.86061 9.02459 9.86061 9.02459C9.84055 9.16161 9.82595 9.28001 9.81266 9.38775C9.72819 10.0728 9.69685 10.3269 8.65569 12.1967C8.11535 13.1671 8.386 14.2463 8.62054 15.1815C8.90901 16.3317 9.14284 17.2641 7.74585 17.5082C8.12458 18.0884 8.39505 18.4626 8.61609 18.7684C9.06958 19.3959 9.31505 19.7355 9.86061 20.9754ZM11.705 4.5C11.705 5.08398 11.3196 5.55738 10.8443 5.55738C10.369 5.55738 9.98364 5.08398 9.98364 4.5C9.98364 3.91603 10.369 3.44263 10.8443 3.44263C11.3196 3.44263 11.705 3.91603 11.705 4.5ZM13.5491 5.40983C14.0245 5.40983 14.4098 4.93643 14.4098 4.35245C14.4098 3.76848 14.0245 3.29507 13.5491 3.29507C13.0738 3.29507 12.6885 3.76848 12.6885 4.35245C12.6885 4.93643 13.0738 5.40983 13.5491 5.40983Z" fill="black"/>
<path fill-rule="evenodd" clip-rule="evenodd" d="M11.978 6.46893C11.8412 6.49272 11.6954 6.51804 11.537 6.54306C11.205 6.59548 11.023 6.68618 10.935 6.7726C10.8739 6.83247 10.8112 6.93337 10.8473 7.18227C10.8999 7.5447 11.2079 7.98501 11.6405 8.35588C11.8471 8.53298 12.0589 8.6738 12.2391 8.76485C12.4061 8.8492 12.4964 8.86582 12.5171 8.86963C12.5216 8.87046 12.5228 8.87068 12.5208 8.87086C12.6811 8.85643 12.8634 8.75822 13.052 8.53113C13.2396 8.30538 13.3983 7.99136 13.5058 7.65105C13.6135 7.31037 13.6587 6.97847 13.6465 6.73103C13.6404 6.60683 13.6207 6.52522 13.6027 6.48059C13.6015 6.47768 13.6004 6.47507 13.5993 6.47274C13.3773 6.36336 13.1229 6.33134 12.7907 6.35434C12.5359 6.37198 12.2784 6.41673 11.978 6.46893ZM12.7216 5.35673C13.1718 5.32556 13.6464 5.36276 14.105 5.60844C14.327 5.72737 14.4562 5.92436 14.5294 6.10487C14.6028 6.28603 14.6357 6.48691 14.6453 6.6817C14.6646 7.07226 14.5946 7.5244 14.4594 7.95231C14.3241 8.38059 14.1124 8.81972 13.8212 9.17018C13.5311 9.51932 13.1263 9.8204 12.6104 9.86684C12.3286 9.89221 12.026 9.77755 11.7882 9.65739C11.5272 9.52554 11.2491 9.3375 10.9896 9.11507C10.4902 8.68688 9.9621 8.04546 9.85765 7.32592C9.78533 6.82772 9.90204 6.38517 10.2345 6.05887C10.54 5.75912 10.9655 5.62091 11.381 5.5553C11.5006 5.53642 11.6245 5.51492 11.7503 5.49308C12.0752 5.4367 12.4129 5.3781 12.7216 5.35673ZM10.2236 9.99232C10.1997 10.1014 10.1694 10.2144 10.1291 10.3354C9.98001 10.7825 9.69273 11.3622 9.09259 12.44C8.85756 12.8621 8.80897 13.3243 8.85898 13.8279C8.89952 14.236 8.99865 14.632 9.1011 15.0412C9.12922 15.1535 9.15758 15.2668 9.18505 15.3816C9.30018 15.8628 9.42171 16.4444 9.26415 16.9458C9.17785 17.2203 9.0127 17.4618 8.75493 17.6474C8.68526 17.6976 8.6106 17.7424 8.53122 17.7823C8.71241 18.0458 8.86551 18.258 9.00238 18.4476C9.4149 19.0192 9.67983 19.3863 10.1211 20.337C10.1271 20.3354 10.1331 20.3338 10.139 20.3322C10.3456 20.2773 10.5874 20.2313 10.84 20.1952C11.3434 20.1233 11.9261 20.0858 12.4152 20.107C12.6687 20.1181 12.8983 20.1493 13.101 20.1811C13.1683 20.1916 13.2301 20.2018 13.2883 20.2114C13.4143 20.2321 13.5232 20.25 13.6338 20.2631C13.8643 20.2904 14.0283 20.2858 14.1752 20.2345C14.215 20.1489 14.2555 20.0666 14.2959 19.9848C14.5254 19.519 14.7459 19.0716 14.7459 18.1475C14.7459 17.6174 14.8799 17.1866 15.1065 16.8466C15.3078 16.5446 15.5664 16.3379 15.82 16.1973C15.7814 16.159 15.7431 16.1186 15.7053 16.0762C15.1637 15.4673 14.8051 14.4978 15.2347 13.0841C15.6914 11.5815 15.4996 10.6131 15.2422 10.0424C15.1608 9.862 15.0704 9.71587 14.9858 9.60097C14.8477 9.76127 14.6769 9.95032 14.4868 10.1404C14.2414 10.3858 13.9524 10.6446 13.6513 10.8453C13.3636 11.0371 12.9987 11.2213 12.6148 11.2213C12.2543 11.2213 11.8751 11.066 11.5572 10.8986C11.2237 10.7229 10.8857 10.4944 10.5894 10.2745C10.4603 10.1787 10.3372 10.0832 10.2236 9.99232ZM14.9508 8.85246C15.2293 8.43721 15.23 8.43765 15.23 8.43765L15.2322 8.43912L15.2356 8.44148L15.2444 8.44762C15.2511 8.45234 15.2594 8.45833 15.2692 8.46562C15.2887 8.4802 15.3141 8.5 15.3444 8.52526C15.4048 8.57577 15.4845 8.64837 15.574 8.74504C15.7532 8.93854 15.9723 9.22902 16.1537 9.6312C16.5214 10.4462 16.7108 11.6664 16.1915 13.3749C15.8589 14.4694 16.1519 15.0736 16.4525 15.4115C16.6151 15.5943 16.7991 15.7194 16.945 15.799C17.0172 15.8384 17.0776 15.8653 17.1176 15.8816C17.1376 15.8897 17.1522 15.8951 17.1604 15.898L17.1673 15.9004L17.1662 15.9L17.1648 15.8996C17.1648 15.8996 17.1647 15.8995 17.1638 15.9022L17.0168 16.8747C17.0168 16.877 17.0169 16.877 17.0169 16.877L17.0181 16.877L17.0191 16.877L17.0132 16.8772C17.0061 16.8774 16.9934 16.878 16.976 16.8792C16.9408 16.8817 16.8874 16.887 16.822 16.8979C16.6887 16.9201 16.5187 16.9636 16.3548 17.0456C16.1928 17.1266 16.046 17.2402 15.9386 17.4013C15.8333 17.5593 15.7459 17.7924 15.7459 18.1475C15.7459 19.325 15.4102 19.9982 15.1695 20.4809C15.1119 20.5963 15.0597 20.7009 15.0189 20.7989L14.9538 20.9551L14.8073 21.0396C14.3525 21.302 13.9107 21.3029 13.5162 21.2562C13.3823 21.2403 13.2379 21.2166 13.1013 21.1941C13.048 21.1854 12.9958 21.1768 12.9459 21.169C12.7579 21.1395 12.5706 21.1147 12.3717 21.1061C11.9559 21.088 11.4361 21.1202 10.9814 21.1851C10.7548 21.2175 10.5536 21.2567 10.3959 21.2986C10.3171 21.3196 10.2546 21.3398 10.2081 21.3579C10.1638 21.3752 10.1466 21.3856 10.1466 21.3856L9.64835 21.7344L9.40301 21.1768C8.87875 19.9853 8.66507 19.6902 8.22974 19.0889C8.00901 18.7841 7.7313 18.4005 7.32722 17.7815L6.91254 17.1463L7.65984 17.0157C7.93037 16.9684 8.08414 16.8981 8.17061 16.8359C8.2477 16.7804 8.28656 16.721 8.31015 16.6459C8.37236 16.448 8.33714 16.1352 8.2125 15.6143C8.19032 15.5216 8.16565 15.4234 8.13986 15.3208C8.03527 14.9045 7.91244 14.4157 7.86388 13.9267C7.80171 13.3007 7.85148 12.6133 8.2189 11.9535C8.82368 10.8673 9.06509 10.365 9.18038 10.0191C9.26 9.7803 9.27875 9.62816 9.31122 9.36471C9.32505 9.2525 9.34136 9.12009 9.36594 8.95219L9.50405 8.00843L10.2015 8.6588L10.2054 8.66237L10.2192 8.67508C10.2317 8.6865 10.2505 8.70367 10.275 8.72575C10.3242 8.76993 10.396 8.83366 10.4854 8.91041C10.6646 9.06435 10.9117 9.26844 11.1852 9.4714C11.4606 9.67572 11.7528 9.87137 12.0232 10.0138C12.3093 10.1645 12.508 10.2213 12.6148 10.2213C12.6981 10.2213 12.8587 10.1719 13.0966 10.0133C13.3212 9.86358 13.5578 9.65519 13.7797 9.43333C13.9994 9.21356 14.1934 8.99199 14.3331 8.82438C14.4027 8.74092 14.458 8.67169 14.4956 8.62385C14.5144 8.59995 14.5287 8.58144 14.5381 8.56923L14.5483 8.55577L14.5506 8.5528L14.8354 8.17299L15.23 8.43765L14.9508 8.85246Z" fill="black"/>
<path d="M11.6066 4.52459C11.6066 4.76904 11.4414 4.96721 11.2377 4.96721C11.034 4.96721 10.8689 4.76904 10.8689 4.52459C10.8689 4.28014 11.034 4.08197 11.2377 4.08197C11.4414 4.08197 11.6066 4.28014 11.6066 4.52459Z" fill="black"/>
<path d="M13.623 4.52459C13.623 4.76904 13.4578 4.96721 13.2541 4.96721C13.0504 4.96721 12.8853 4.76904 12.8853 4.52459C12.8853 4.28014 13.0504 4.08197 13.2541 4.08197C13.4578 4.08197 13.623 4.28014 13.623 4.52459Z" fill="black"/>
</svg>
