<svg width="192" height="192" viewBox="0 0 192 192" fill="none" xmlns="http://www.w3.org/2000/svg">
<rect width="192" height="192" fill="black"/>
<path d="M59.7982 142.117H38.5253C38.4549 142.124 38.3839 142.115 38.3174 142.091C38.2509 142.068 38.1904 142.029 38.1404 141.979C38.0905 141.929 38.0521 141.869 38.0282 141.802C38.0043 141.736 37.9954 141.665 38.0022 141.594V49.5253C37.9954 49.4549 38.0043 49.3839 38.0282 49.3174C38.0521 49.2509 38.0905 49.1904 38.1404 49.1405C38.1904 49.0905 38.2509 49.0521 38.3174 49.0282C38.3839 49.0043 38.4549 48.9954 38.5253 49.0022H59.7982C59.8686 48.9954 59.9396 49.0043 60.0061 49.0282C60.0727 49.0521 60.1331 49.0905 60.1831 49.1405C60.2331 49.1904 60.2714 49.2509 60.2953 49.3174C60.3192 49.3839 60.3281 49.4549 60.3213 49.5253V51.6178C60.3281 51.6882 60.3192 51.7592 60.2953 51.8257C60.2714 51.8922 60.2331 51.9527 60.1831 52.0026C60.1331 52.0526 60.0727 52.091 60.0061 52.1149C59.9396 52.1388 59.8686 52.1477 59.7982 52.1409L43.6692 53.3615C43.5988 53.3548 43.5278 53.3637 43.4613 53.3876C43.3947 53.4115 43.3343 53.4498 43.2843 53.4998C43.2343 53.5498 43.196 53.6102 43.1721 53.6767C43.1482 53.7433 43.1393 53.8143 43.1461 53.8846C43.7563 65.1753 44.2795 85.4898 44.2795 94.3828C44.2795 103.276 43.7563 125.247 43.1461 136.668C43.1393 136.739 43.1482 136.81 43.1721 136.876C43.196 136.943 43.2343 137.003 43.2843 137.053C43.3343 137.103 43.3947 137.141 43.4613 137.165C43.5278 137.189 43.5988 137.198 43.6692 137.191L59.7982 138.674C59.8686 138.667 59.9396 138.676 60.0061 138.7C60.0727 138.724 60.1331 138.762 60.1831 138.812C60.2331 138.862 60.2714 138.922 60.2953 138.989C60.3192 139.055 60.3281 139.126 60.3213 139.197V141.594C60.3281 141.665 60.3192 141.736 60.2953 141.802C60.2714 141.869 60.2331 141.929 60.1831 141.979C60.1331 142.029 60.0727 142.068 60.0061 142.091C59.9396 142.115 59.8686 142.124 59.7982 142.117Z" fill="white"/>
<path d="M98.1594 89.7187C98.0891 89.7254 98.0181 89.7165 97.9515 89.6926C97.885 89.6687 97.8246 89.6304 97.7746 89.5804C97.7246 89.5304 97.6863 89.47 97.6624 89.4034C97.6385 89.3369 97.6296 89.2659 97.6363 89.1955V87.0159C97.6296 86.9455 97.6385 86.8745 97.6624 86.808C97.6863 86.7414 97.7246 86.681 97.7746 86.631C97.8246 86.581 97.885 86.5427 97.9515 86.5188C98.0181 86.4949 98.0891 86.486 98.1594 86.4928C111.237 85.4465 114.899 79.2563 114.899 69.9709C114.899 56.8929 106.442 53.1439 91.9694 53.0131C91.899 53.0063 91.828 53.0152 91.7615 53.0391C91.6949 53.063 91.6345 53.1014 91.5845 53.1514C91.5345 53.2013 91.4962 53.2618 91.4723 53.3283C91.4484 53.3948 91.4395 53.4658 91.4463 53.5362V102.666C91.3827 105.779 91.4846 108.893 91.7514 111.995C92.0565 114.828 93.5387 116.703 98.8569 116.79H104.611C104.681 116.783 104.752 116.792 104.819 116.816C104.886 116.84 104.946 116.878 104.996 116.928C105.046 116.978 105.084 117.039 105.108 117.105C105.132 117.172 105.141 117.243 105.134 117.313V119.711C105.141 119.781 105.132 119.852 105.108 119.919C105.084 119.985 105.046 120.046 104.996 120.096C104.946 120.146 104.886 120.184 104.819 120.208C104.752 120.232 104.681 120.241 104.611 120.234C100.644 120.234 92.5797 120.234 86.3024 120.234C80.8534 120.234 74.8813 120.234 71.2195 120.234C71.1492 120.241 71.0782 120.232 71.0116 120.208C70.9451 120.184 70.8847 120.146 70.8347 120.096C70.7847 120.046 70.7464 119.985 70.7225 119.919C70.6986 119.852 70.6897 119.781 70.6964 119.711V117.444C70.6897 117.374 70.6986 117.303 70.7225 117.236C70.7464 117.17 70.7847 117.109 70.8347 117.059C70.8847 117.009 70.9451 116.971 71.0116 116.947C71.0782 116.923 71.1492 116.914 71.2195 116.921H74.6633C79.9815 116.921 80.1995 115.569 80.6354 112.562C81.001 109.291 81.1466 106 81.0713 102.709V66.7014C81.0713 62.8216 81.0713 60.7291 80.7662 56.8493C80.7662 53.9286 79.502 52.49 74.7069 52.49H71.2631C71.1886 52.4981 71.1131 52.4887 71.0429 52.4624C70.9726 52.4361 70.9095 52.3937 70.8587 52.3385C70.8078 52.2834 70.7705 52.2171 70.7499 52.145C70.7293 52.0729 70.7259 51.9969 70.74 51.9233V49.5256C70.7333 49.4553 70.7422 49.3843 70.7661 49.3177C70.79 49.2512 70.8283 49.1908 70.8783 49.1408C70.9283 49.0908 70.9887 49.0525 71.0552 49.0286C71.1218 49.0047 71.1927 48.9958 71.2631 49.0025C74.9249 49.0025 80.897 49.0025 86.346 49.0025H100.557C115.727 49.0025 125.579 56.5442 125.579 67.3989C125.579 81.6539 114.463 89.8058 98.1594 89.7187Z" fill="white"/>
<path d="M153.827 142.118H132.379C132.309 142.125 132.238 142.116 132.171 142.092C132.105 142.068 132.045 142.03 131.995 141.98C131.945 141.93 131.906 141.869 131.882 141.803C131.858 141.736 131.85 141.665 131.856 141.595V139.197C131.85 139.127 131.858 139.056 131.882 138.989C131.906 138.923 131.945 138.862 131.995 138.812C132.045 138.762 132.105 138.724 132.171 138.7C132.238 138.676 132.309 138.667 132.379 138.674L148.683 137.323C148.753 137.329 148.824 137.32 148.891 137.296C148.957 137.273 149.018 137.234 149.068 137.184C149.118 137.134 149.156 137.074 149.18 137.007C149.204 136.941 149.213 136.87 149.206 136.799C148.596 125.378 148.073 103.015 148.073 94.5139C148.073 86.0132 148.596 65.3064 149.206 54.0157C149.238 53.9367 149.249 53.8505 149.236 53.766C149.224 53.6816 149.19 53.6019 149.136 53.5353C149.083 53.4686 149.013 53.4174 148.933 53.3869C148.853 53.3564 148.767 53.3478 148.683 53.3618L132.379 52.1412C132.309 52.148 132.238 52.1391 132.171 52.1152C132.105 52.0913 132.045 52.053 131.995 52.003C131.945 51.953 131.906 51.8926 131.882 51.826C131.858 51.7595 131.85 51.6885 131.856 51.6181V49.5256C131.85 49.4553 131.858 49.3843 131.882 49.3177C131.906 49.2512 131.945 49.1908 131.995 49.1408C132.045 49.0908 132.105 49.0525 132.171 49.0286C132.238 49.0047 132.309 48.9958 132.379 49.0025H153.827C153.897 48.9958 153.968 49.0047 154.035 49.0286C154.101 49.0525 154.162 49.0908 154.212 49.1408C154.262 49.1908 154.3 49.2512 154.324 49.3177C154.348 49.3843 154.357 49.4553 154.35 49.5256V141.595C154.357 141.665 154.348 141.736 154.324 141.803C154.3 141.869 154.262 141.93 154.212 141.98C154.162 142.03 154.101 142.068 154.035 142.092C153.968 142.116 153.897 142.125 153.827 142.118Z" fill="white"/>
</svg>
