<svg width="24" height="24" viewBox="0 0 24 24" fill="none" xmlns="http://www.w3.org/2000/svg">
<path fill-rule="evenodd" clip-rule="evenodd" d="M11.908 15.99C12.7017 16.3196 13.6063 16.3996 14.5005 16.16C14.9623 16.0363 15.3839 15.8373 15.7557 15.5798L17.194 16.7639C17.0284 17.3288 17.0109 17.9448 17.1744 18.5549C17.6491 20.3265 19.4701 21.3779 21.2417 20.9032C23.0133 20.4285 24.0647 18.6075 23.59 16.8359C23.1153 15.0642 21.2943 14.0129 19.5226 14.4876C19.0679 14.6094 18.6605 14.82 18.3143 15.0957L17.0664 14.0683C17.4802 13.2437 17.6146 12.275 17.3827 11.313L18.4541 10.5472C19.1286 11.0228 20.0015 11.2067 20.8611 10.9764C22.3978 10.5646 23.3098 8.98502 22.898 7.4483C22.4862 5.91157 20.9067 4.99961 19.3699 5.41137C17.8471 5.81942 16.9378 7.37431 17.3222 8.89785L16.4366 9.53085C16.0348 9.09221 15.5414 8.74875 14.9957 8.52318L15.116 6.13171C16.5898 5.6781 17.4517 4.13533 17.0493 2.63348C16.6376 1.09675 15.058 0.184786 13.5213 0.596551C11.9845 1.00832 11.0726 2.58788 11.4843 4.12461C11.7207 5.00682 12.342 5.68312 13.1191 6.02128L13.0073 8.24233C12.8084 8.26475 12.6086 8.30228 12.4093 8.35567C11.5473 8.58666 10.8254 9.07968 10.3065 9.72608L8.4792 9.10793C8.53385 8.64704 8.50352 8.16824 8.37607 7.69258C7.83842 5.68606 5.77597 4.4953 3.76945 5.03294C1.76292 5.57059 0.572163 7.63305 1.10981 9.63957C1.64746 11.6461 3.70991 12.8369 5.71643 12.2992C6.54563 12.077 7.23552 11.5944 7.72168 10.963L9.47548 11.5563C9.37572 12.12 9.39479 12.714 9.55274 13.3034C9.70305 13.8644 9.96434 14.366 10.3067 14.791L8.58753 16.9816C8.07775 16.8172 7.51629 16.793 6.96043 16.9419C5.4237 17.3537 4.51174 18.9332 4.92351 20.47C5.33527 22.0067 6.91484 22.9187 8.45156 22.5069C9.98829 22.0951 10.9003 20.5156 10.4885 18.9788C10.4146 18.7031 10.3031 18.4475 10.1611 18.2161L11.908 15.99ZM13.9771 2.29783C14.5743 2.13783 15.188 2.49219 15.348 3.08933C15.508 3.68647 15.1537 4.30025 14.5565 4.46025C13.9594 4.62026 13.3456 4.26589 13.1856 3.66875C13.0256 3.07162 13.38 2.45783 13.9771 2.29783ZM7.41629 18.6432C8.01343 18.4832 8.62721 18.8376 8.78721 19.4347C8.94721 20.0318 8.59285 20.6456 7.99571 20.8056C7.39857 20.9656 6.78479 20.6113 6.62479 20.0141C6.46478 19.417 6.81915 18.8032 7.41629 18.6432ZM19.8258 7.11265C20.4229 6.95265 21.0367 7.30701 21.1967 7.90415C21.3567 8.50129 21.0024 9.11507 20.4052 9.27507C19.8081 9.43508 19.1943 9.08071 19.0343 8.48357C18.8743 7.88643 19.2287 7.27265 19.8258 7.11265ZM13.9829 14.2282C12.8947 14.5198 11.7762 13.874 11.4846 12.7858C11.193 11.6976 11.8388 10.5791 12.927 10.2875C14.0151 9.99594 15.1337 10.6417 15.4252 11.7299C15.7168 12.8181 15.071 13.9366 13.9829 14.2282ZM20.7241 18.9714C20.0194 19.1602 19.295 18.742 19.1062 18.0373C18.9174 17.3326 19.3356 16.6083 20.0403 16.4194C20.745 16.2306 21.4693 16.6488 21.6581 17.3535C21.8469 18.0582 21.4287 18.7825 20.7241 18.9714ZM5.1988 10.3674C4.25921 10.6191 3.29342 10.0615 3.04166 9.12193C2.7899 8.18234 3.34749 7.21656 4.28708 6.9648C5.22667 6.71303 6.19246 7.27063 6.44422 8.21022C6.69598 9.14981 6.13839 10.1156 5.1988 10.3674Z" fill="black"/>
</svg>
