<svg width="24" height="24" viewBox="0 0 24 24" fill="none" xmlns="http://www.w3.org/2000/svg">
<path d="M9.59603 7.07897C10.7733 6.51859 12.1115 6.395 13.3716 6.73028C14.6316 7.06556 15.7314 7.83786 16.4745 8.90924C17.2176 9.98062 17.5557 11.2813 17.4282 12.5789C17.3008 13.8765 16.7162 15.0866 15.7789 15.993L13.7033 12.1456H15.4511L15.4521 12.0456C15.4522 11.4622 15.3064 10.8881 15.0279 10.3754C14.7494 9.8628 14.3471 9.42797 13.8576 9.11052C13.3681 8.79308 12.807 8.60312 12.2254 8.55792C11.6437 8.51273 11.06 8.61375 10.5274 8.85177L9.59603 7.07897ZM14.2699 17.0323C13.0954 17.5788 11.7656 17.693 10.5152 17.3546C9.26473 17.0163 8.17399 16.2471 7.43541 15.1828C6.69683 14.1186 6.35789 12.8277 6.47839 11.5379C6.59889 10.2481 7.1711 9.04227 8.09403 8.13326L10.2056 12.0456H8.45679C8.4566 12.6252 8.60044 13.1957 8.87537 13.7059C9.1503 14.2161 9.5477 14.65 10.0319 14.9686C10.516 15.2872 11.0717 15.4804 11.6491 15.531C12.2264 15.5816 12.8073 15.488 13.3395 15.2585L14.2699 17.0323Z" fill="black"/>
<path d="M3 3H21C21.2652 3 21.5196 3.10536 21.7071 3.29289C21.8946 3.48043 22 3.73478 22 4V20C22 20.2652 21.8946 20.5196 21.7071 20.7071C21.5196 20.8946 21.2652 21 21 21H3C2.73478 21 2.48043 20.8946 2.29289 20.7071C2.10536 20.5196 2 20.2652 2 20V4C2 3.73478 2.10536 3.48043 2.29289 3.29289C2.48043 3.10536 2.73478 3 3 3ZM4 5V19H20V5H4Z" fill="black"/>
</svg>
