<svg width="24" height="24" viewBox="0 0 24 24" fill="none" xmlns="http://www.w3.org/2000/svg">
<path d="M4 3H20C20.2652 3 20.5196 3.10536 20.7071 3.29289C20.8946 3.48043 21 3.73478 21 4V20C21 20.2652 20.8946 20.5196 20.7071 20.7071C20.5196 20.8946 20.2652 21 20 21H4C3.73478 21 3.48043 20.8946 3.29289 20.7071C3.10536 20.5196 3 20.2652 3 20V4C3 3.73478 3.10536 3.48043 3.29289 3.29289C3.48043 3.10536 3.73478 3 4 3ZM5 5V19H19V5H5Z" fill="black"/>
<path d="M12 17C12.5917 17 13.0714 16.5336 13.0714 15.9583C13.0714 15.383 12.5917 14.9167 12 14.9167C11.4083 14.9167 10.9286 15.383 10.9286 15.9583C10.9286 16.5336 11.4083 17 12 17Z" fill="black"/>
<path d="M12 7C10.3457 7 9 8.30833 9 9.91667V10.75H10.7143V9.91667C10.7143 9.22917 11.2929 8.66667 12 8.66667C12.7071 8.66667 13.2857 9.22917 13.2857 9.91667C13.2857 10.3375 13.2043 10.5083 12.5914 11.0167C11.61 11.8292 11.1429 12.4333 11.1429 13.6667V14.0833H12.8571V13.6667C12.8571 13.1208 12.9386 12.9167 13.7014 12.2833C14.5414 11.5875 15 11.0042 15 9.91667C15 8.30833 13.6543 7 12 7Z" fill="black"/>
</svg>
