<svg width="24" height="24" viewBox="0 0 24 24" fill="none" xmlns="http://www.w3.org/2000/svg">
<path d="M17.0696 11.2712L7.25164 4.14734C7.13054 4.05938 6.98978 4.00882 6.84437 4.00105C6.69896 3.99328 6.55433 4.02859 6.42589 4.10323C6.29746 4.17786 6.19002 4.28901 6.11502 4.42485C6.04002 4.56069 6.00027 4.71614 6 4.87463V19.1268C6.00051 19.285 6.04032 19.44 6.11522 19.5755C6.19012 19.711 6.2973 19.8219 6.42542 19.8965C6.55353 19.9711 6.69778 20.0065 6.84289 19.999C6.988 19.9916 7.12855 19.9415 7.24963 19.8541L17.0696 12.7302C17.18 12.6502 17.2705 12.5418 17.3332 12.4145C17.3958 12.2872 17.4286 12.1451 17.4286 12.0007C17.4286 11.8564 17.3958 11.7142 17.3332 11.5869C17.2705 11.4597 17.18 11.3512 17.0696 11.2712Z" fill="black"/>
</svg>
